<svg width="24" height="25" viewBox="0 0 24 25" fill="none" xmlns="http://www.w3.org/2000/svg">
<path fill-rule="evenodd" clip-rule="evenodd" d="M0 1.98013C0 1.45497 0.210714 0.951312 0.585787 0.579966C0.960859 0.20862 1.46957 0 2 0H22C22.5304 0 23.0391 0.20862 23.4142 0.579966C23.7893 0.951312 24 1.45497 24 1.98013V4.73383C23.9998 5.43399 23.7188 6.10542 23.2187 6.60043L16 13.7474V23.5477C16 23.7952 15.9362 24.0387 15.8144 24.2549C15.6927 24.4711 15.5171 24.6529 15.3045 24.7831C15.0918 24.9132 14.849 24.9874 14.5992 24.9985C14.3495 25.0097 14.101 24.9574 13.8773 24.8467L8.92133 22.3939C8.64449 22.2569 8.41166 22.0462 8.24894 21.7856C8.08621 21.5249 8.00001 21.2245 8 20.9181V13.7474L0.781333 6.60043C0.281202 6.10542 0.000151033 5.43399 0 4.73383V1.98013Z" fill="#201F1E"/>
</svg>
